<svg width="60" height="44" viewBox="0 0 60 44" fill="none" xmlns="http://www.w3.org/2000/svg">
<path d="M12.5164 15.5499L7.58997 15.6446C7.52762 15.6458 7.46817 15.6712 7.42417 15.7154L0.167408 23.0049C0.0745908 23.0981 0.0739215 23.2486 0.165906 23.3427L7.41823 30.7583C7.46569 30.8069 7.53145 30.8331 7.59928 30.8305L12.5941 30.6408C12.7233 30.6359 12.8254 30.5298 12.8254 30.4005V26.3499C12.8254 26.217 12.7178 26.1094 12.585 26.1094H9.9676C9.87788 26.1094 9.79563 26.1593 9.75424 26.2389L9.53565 26.6593C9.46024 26.8043 9.26525 26.8334 9.15072 26.7168L5.83496 23.3408C5.74337 23.2475 5.74304 23.0982 5.83422 23.0045L9.1729 19.5748C9.28048 19.4643 9.4628 19.4822 9.54685 19.6115L9.75236 19.9277C9.79568 19.9943 9.86913 20.0352 9.94859 20.037L12.5759 20.0961C12.7122 20.0991 12.8238 19.9884 12.8218 19.8521L12.7615 15.7868C12.7596 15.6536 12.6497 15.5473 12.5164 15.5499Z" fill="#020350"/>
<path d="M12.5164 15.5499L7.58997 15.6446C7.52762 15.6458 7.46817 15.6712 7.42417 15.7154L0.167408 23.0049C0.0745908 23.0981 0.0739215 23.2486 0.165906 23.3427L7.41823 30.7583C7.46569 30.8069 7.53145 30.8331 7.59928 30.8305L12.5941 30.6408C12.7233 30.6359 12.8254 30.5298 12.8254 30.4005V26.3499C12.8254 26.217 12.7178 26.1094 12.585 26.1094H9.9676C9.87788 26.1094 9.79563 26.1593 9.75424 26.2389L9.53565 26.6593C9.46024 26.8043 9.26525 26.8334 9.15072 26.7168L5.83496 23.3408C5.74337 23.2475 5.74304 23.0982 5.83422 23.0045L9.1729 19.5748C9.28048 19.4643 9.4628 19.4822 9.54685 19.6115L9.75236 19.9277C9.79568 19.9943 9.86913 20.0352 9.94859 20.037L12.5759 20.0961C12.7122 20.0991 12.8238 19.9884 12.8218 19.8521L12.7615 15.7868C12.7596 15.6536 12.6497 15.5473 12.5164 15.5499Z" fill="black" fill-opacity="0.2"/>
<path d="M14.5468 30.3916V15.7857C14.5468 15.6529 14.6544 15.5453 14.7872 15.5453H18.1834C18.2531 15.5453 18.3194 15.5755 18.3651 15.6282L21.4099 19.1391C21.5089 19.2532 21.6874 19.2489 21.7807 19.1301L24.8699 15.1984C24.9155 15.1404 24.9852 15.1065 25.059 15.1065H28.6843C28.8171 15.1065 28.9248 15.2142 28.9248 15.347V30.3915C28.9248 30.5244 28.8171 30.632 28.6843 30.632H25.1826C25.0498 30.632 24.9421 30.5244 24.9421 30.3916V21.6957C24.9421 21.4726 24.6646 21.3698 24.5192 21.539L22.7528 23.5955C22.7071 23.6487 22.6405 23.6793 22.5703 23.6793H20.4335C20.3606 23.6793 20.2917 23.6462 20.246 23.5894L18.9574 21.9847C18.8152 21.8076 18.5294 21.9081 18.5294 22.1352V30.3915C18.5294 30.5244 18.4217 30.632 18.2889 30.632H14.7872C14.6544 30.632 14.5468 30.5244 14.5468 30.3916Z" fill="#020350"/>
<path d="M14.5468 30.3916V15.7857C14.5468 15.6529 14.6544 15.5453 14.7872 15.5453H18.1834C18.2531 15.5453 18.3194 15.5755 18.3651 15.6282L21.4099 19.1391C21.5089 19.2532 21.6874 19.2489 21.7807 19.1301L24.8699 15.1984C24.9155 15.1404 24.9852 15.1065 25.059 15.1065H28.6843C28.8171 15.1065 28.9248 15.2142 28.9248 15.347V30.3915C28.9248 30.5244 28.8171 30.632 28.6843 30.632H25.1826C25.0498 30.632 24.9421 30.5244 24.9421 30.3916V21.6957C24.9421 21.4726 24.6646 21.3698 24.5192 21.539L22.7528 23.5955C22.7071 23.6487 22.6405 23.6793 22.5703 23.6793H20.4335C20.3606 23.6793 20.2917 23.6462 20.246 23.5894L18.9574 21.9847C18.8152 21.8076 18.5294 21.9081 18.5294 22.1352V30.3915C18.5294 30.5244 18.4217 30.632 18.2889 30.632H14.7872C14.6544 30.632 14.5468 30.5244 14.5468 30.3916Z" fill="black" fill-opacity="0.2"/>
<path d="M38.8771 15.1065H31.2192C31.1182 15.1065 31.028 15.1695 30.9933 15.2643L30.0816 17.7565C30.0546 17.8302 30.0653 17.9124 30.1102 17.9767L35.6138 25.8663C35.725 26.0257 35.6109 26.2444 35.4165 26.2444H33.6184C33.5334 26.2444 33.4546 26.1995 33.4114 26.1262L33.1122 25.62C33.069 25.5468 32.9902 25.5019 32.9052 25.5019H30.279C30.1462 25.5019 30.0386 25.6095 30.0386 25.7423V30.3915C30.0386 30.5244 30.1462 30.632 30.279 30.632H37.9296C38.0171 30.632 38.0976 30.5846 38.14 30.5081L40.4294 26.3745C40.4735 26.2947 40.4688 26.1969 40.4172 26.1218L35.7987 19.3983C35.6891 19.2387 35.8033 19.0216 35.9969 19.0216H38.8771C39.01 19.0216 39.1176 18.914 39.1176 18.7811V15.347C39.1176 15.2142 39.01 15.1065 38.8771 15.1065Z" fill="#020350"/>
<path d="M38.8771 15.1065H31.2192C31.1182 15.1065 31.028 15.1695 30.9933 15.2643L30.0816 17.7565C30.0546 17.8302 30.0653 17.9124 30.1102 17.9767L35.6138 25.8663C35.725 26.0257 35.6109 26.2444 35.4165 26.2444H33.6184C33.5334 26.2444 33.4546 26.1995 33.4114 26.1262L33.1122 25.62C33.069 25.5468 32.9902 25.5019 32.9052 25.5019H30.279C30.1462 25.5019 30.0386 25.6095 30.0386 25.7423V30.3915C30.0386 30.5244 30.1462 30.632 30.279 30.632H37.9296C38.0171 30.632 38.0976 30.5846 38.14 30.5081L40.4294 26.3745C40.4735 26.2947 40.4688 26.1969 40.4172 26.1218L35.7987 19.3983C35.6891 19.2387 35.8033 19.0216 35.9969 19.0216H38.8771C39.01 19.0216 39.1176 18.914 39.1176 18.7811V15.347C39.1176 15.2142 39.01 15.1065 38.8771 15.1065Z" fill="black" fill-opacity="0.2"/>
<path d="M42.0238 17.0984L44.4476 14.7337C44.5424 14.6412 44.6941 14.6428 44.787 14.7372L56.5327 26.6798C56.6261 26.7747 56.6245 26.9275 56.5292 27.0205L54.0726 29.418C53.9776 29.5107 53.8255 29.5089 53.7327 29.414L42.0198 17.4387C41.9269 17.3437 41.9287 17.1912 42.0238 17.0984Z" fill="#020350"/>
<path d="M42.0238 17.0984L44.4476 14.7337C44.5424 14.6412 44.6941 14.6428 44.787 14.7372L56.5327 26.6798C56.6261 26.7747 56.6245 26.9275 56.5292 27.0205L54.0726 29.418C53.9776 29.5107 53.8255 29.5089 53.7327 29.414L42.0198 17.4387C41.9269 17.3437 41.9287 17.1912 42.0238 17.0984Z" fill="black" fill-opacity="0.2"/>
<path d="M52.3108 16.0533L42.0263 26.2399C41.9304 26.3349 41.9314 26.4902 42.0286 26.5839L44.4822 28.9488C44.5768 29.04 44.7271 29.0384 44.8197 28.9452L54.9488 18.7507C55.0414 18.6576 55.0421 18.5074 54.9504 18.4133L52.6522 16.0563C52.559 15.9606 52.4057 15.9593 52.3108 16.0533Z" fill="#C80704"/>
<path d="M44.1431 29.2469L41.7514 26.8848C41.6574 26.7919 41.5059 26.7923 41.4124 26.8858L41.0079 27.2904C40.9144 27.3839 40.9139 27.5353 41.0068 27.6294L43.3689 30.0211C43.4627 30.116 43.6157 30.1164 43.7101 30.0221L44.1441 29.588C44.2385 29.4937 44.238 29.3406 44.1431 29.2469Z" fill="#C80704"/>
<path d="M55.1278 18.0152L53.067 15.8995C52.9486 15.778 52.9898 15.5755 53.1462 15.5099L57.4052 13.7239C57.6164 13.6353 57.8201 13.8641 57.7077 14.0637L55.5095 17.9654C55.4308 18.1053 55.2397 18.1302 55.1278 18.0152Z" fill="#C80704"/>
<path fill-rule="evenodd" clip-rule="evenodd" d="M56.2991 2.2345C57.5121 2.7368 58.4651 3.47322 59.1047 4.45813C60.2777 6.26432 60.2648 8.69452 59.258 11.4801C59.2353 11.5429 59.1869 11.5936 59.1252 11.6194L56.3606 12.7729C56.1501 12.8608 55.9446 12.6313 56.0497 12.4289C58.0092 8.65665 58.4402 5.34176 56.9456 3.04016C56.7571 2.74999 56.5405 2.48213 56.2991 2.2345ZM20.2528 14.3302C20.304 14.3302 20.3539 14.3138 20.3953 14.2835C21.6607 13.3547 22.9796 12.4428 24.3469 11.5548C37.1337 3.25096 50.1084 -0.329024 56.2991 2.2345C51.5389 -2.64779 36.7417 0.685428 22.1877 10.1368C20.3146 11.3533 18.5324 12.6146 16.8541 13.9027C16.6726 14.0419 16.7716 14.3302 17.0003 14.3302H20.2528ZM4.88582 30.5391C4.93656 30.4466 4.92245 30.3311 4.8496 30.2548L3.33444 28.6684C3.22418 28.5529 3.03368 28.5757 2.95439 28.7142C0.583304 32.8577 -0.0454721 36.52 1.56665 39.0031C2.20607 39.9877 3.15982 40.7234 4.37231 41.2257C9.13144 46.1094 23.9296 42.7765 38.4846 33.3243C39.6608 32.5605 40.8011 31.779 41.9024 30.9843C42.0209 30.8988 42.0357 30.7281 41.9342 30.623L40.5752 29.2167C40.4915 29.13 40.3566 29.1187 40.2594 29.19C38.9991 30.1145 37.6858 31.0223 36.3245 31.9064C23.537 40.2106 10.5625 43.7901 4.37231 41.2257C4.13126 40.9783 3.91501 40.7108 3.72681 40.421C2.16734 38.0197 2.70402 34.5152 4.88582 30.5391Z" fill="#C80704"/>
</svg>
